<svg xmlns="http://www.w3.org/2000/svg" viewBox="0 0 1600 640" width="1600" height="640" font-family="Inter, Helvetica, Arial, sans-serif"><rect width="1600" height="640" fill="#fff"/><text x="48" y="58" font-size="34" font-weight="600" fill="#000000">Steel — all origins (HS 72+73)</text><text x="48" y="92" font-size="20" fill="rgba(0,0,0,0.64)">ETRX-STEEL · June 2026 print: 35.71% (−96 bps month over month)</text><line x1="48" y1="550.0" x2="1490" y2="550.0" stroke="rgba(0,0,0,0.08)" stroke-width="1"/><text x="1498" y="557.0" font-size="20" fill="rgba(0,0,0,0.56)">0%</text><line x1="48" y1="340.0" x2="1490" y2="340.0" stroke="rgba(0,0,0,0.08)" stroke-width="1"/><text x="1498" y="347.0" font-size="20" fill="rgba(0,0,0,0.56)">20%</text><line x1="48" y1="130.0" x2="1490" y2="130.0" stroke="rgba(0,0,0,0.08)" stroke-width="1"/><text x="1498" y="137.0" font-size="20" fill="rgba(0,0,0,0.56)">40%</text><text x="48.0" y="576" font-size="20" fill="rgba(0,0,0,0.56)">2010</text><text x="223.7" y="576" font-size="20" fill="rgba(0,0,0,0.56)">2012</text><text x="399.4" y="576" font-size="20" fill="rgba(0,0,0,0.56)">2014</text><text x="575.0" y="576" font-size="20" fill="rgba(0,0,0,0.56)">2016</text><text x="750.7" y="576" font-size="20" fill="rgba(0,0,0,0.56)">2018</text><text x="926.4" y="576" font-size="20" fill="rgba(0,0,0,0.56)">2020</text><text x="1102.1" y="576" font-size="20" fill="rgba(0,0,0,0.56)">2022</text><text x="1277.7" y="576" font-size="20" fill="rgba(0,0,0,0.56)">2024</text><text x="1453.4" y="576" font-size="20" fill="rgba(0,0,0,0.56)">2026</text><polyline points="48.0,543.5 55.3,543.5 62.6,544.1 70.0,544.3 77.3,544.2 84.6,543.6 91.9,543.9 99.2,543.4 106.6,543.2 113.9,543.3 121.2,543.4 128.5,543.3 135.8,543.9 143.2,543.4 150.5,544.7 157.8,544.4 165.1,544.6 172.4,544.6 179.8,544.4 187.1,543.9 194.4,543.8 201.7,543.8 209.0,543.9 216.4,543.4 223.7,544.0 231.0,544.5 238.3,544.9 245.6,544.3 253.0,544.3 260.3,544.2 267.6,543.8 274.9,543.9 282.2,543.9 289.6,543.9 296.9,544.2 304.2,543.7 311.5,543.6 318.8,543.5 326.2,544.3 333.5,544.0 340.8,543.5 348.1,543.5 355.4,543.1 362.8,543.7 370.1,543.8 377.4,543.7 384.7,543.6 392.0,543.3 399.4,543.6 406.7,544.2 414.0,544.4 421.3,544.2 428.6,544.5 435.9,544.3 443.3,544.2 450.6,544.2 457.9,544.2 465.2,544.4 472.5,544.5 479.9,544.1 487.2,544.7 494.5,544.4 501.8,543.3 509.1,543.4 516.5,543.3 523.8,542.9 531.1,543.1 538.4,542.8 545.7,543.1 553.1,543.4 560.4,542.9 567.7,543.0 575.0,542.7 582.3,542.6 589.7,543.3 597.0,542.7 604.3,542.8 611.6,542.7 618.9,543.2 626.3,542.9 633.6,542.6 640.9,542.6 648.2,542.1 655.5,542.5 662.9,542.6 670.2,543.4 677.5,544.0 684.8,544.0 692.1,543.5 699.5,544.0 706.8,543.5 714.1,543.2 721.4,543.4 728.7,543.3 736.1,543.4 743.4,542.4 750.7,542.9 758.0,542.7 765.3,541.7 772.7,535.9 780.0,524.1 787.3,472.5 794.6,469.0 801.9,471.2 809.3,465.6 816.6,461.4 823.9,455.9 831.2,456.8 838.5,463.9 845.9,468.1 853.2,461.8 860.5,474.1 867.8,475.2 875.1,477.2 882.5,483.1 889.8,481.8 897.1,487.9 904.4,490.0 911.7,486.3 919.1,485.6 926.4,491.2 933.7,490.9 941.0,496.9 948.3,490.3 955.7,475.9 963.0,481.4 970.3,491.1 977.6,483.9 984.9,484.7 992.3,486.2 999.6,488.4 1006.9,488.8 1014.2,491.5 1021.5,489.7 1028.9,489.5 1036.2,498.1 1043.5,488.2 1050.8,489.4 1058.1,492.0 1065.5,488.2 1072.8,491.7 1080.1,490.2 1087.4,483.5 1094.7,483.0 1102.1,487.9 1109.4,489.9 1116.7,490.3 1124.0,493.4 1131.3,496.7 1138.6,494.1 1146.0,500.9 1153.3,495.7 1160.6,496.2 1167.9,501.5 1175.2,498.8 1182.6,499.4 1189.9,505.1 1197.2,503.8 1204.5,507.6 1211.8,506.2 1219.2,505.7 1226.5,507.3 1233.8,508.0 1241.1,507.4 1248.4,506.9 1255.8,507.1 1263.1,508.3 1270.4,505.2 1277.7,507.3 1285.0,504.6 1292.4,504.4 1299.7,506.5 1307.0,504.1 1314.3,502.6 1321.6,500.8 1329.0,502.4 1336.3,500.3 1343.6,508.2 1350.9,503.1 1358.2,497.6 1365.6,502.3 1372.9,495.6 1380.2,421.1 1387.5,305.6 1394.8,289.3 1402.2,201.1 1409.5,170.3 1416.8,174.7 1424.1,178.0 1431.4,177.1 1438.8,188.3 1446.1,184.9 1453.4,178.0 1460.7,195.2 1468.0,212.6 1475.4,178.1 1482.7,165.0 1490.0,175.1" fill="none" stroke="#000000" stroke-width="1.75" stroke-linejoin="round"/><circle cx="1490.0" cy="175.1" r="3.5" fill="#1f4e79"/><text x="1486.0" y="163.1" font-size="22" font-weight="600" fill="#1f4e79">35.71%</text><text x="48" y="612" font-size="16" fill="rgba(0,0,0,0.56)">ETRX — US Effective Tariff Rate Index · etrxindex.com · Source: US Census Bureau, imports for consumption</text></svg>