<svg xmlns="http://www.w3.org/2000/svg" viewBox="0 0 1600 640" width="1600" height="640" font-family="Inter, Helvetica, Arial, sans-serif"><rect width="1600" height="640" fill="#fff"/><text x="48" y="58" font-size="34" font-weight="600" fill="#000000">Vietnam — all chapters</text><text x="48" y="92" font-size="20" fill="rgba(0,0,0,0.64)">ETRX-VN · August 2026 print: 7.22% (+93 bps month over month)</text><line x1="48" y1="550.0" x2="1490" y2="550.0" stroke="rgba(0,0,0,0.08)" stroke-width="1"/><text x="1498" y="557.0" font-size="20" fill="rgba(0,0,0,0.56)">0%</text><line x1="48" y1="340.0" x2="1490" y2="340.0" stroke="rgba(0,0,0,0.08)" stroke-width="1"/><text x="1498" y="347.0" font-size="20" fill="rgba(0,0,0,0.56)">7.5%</text><line x1="48" y1="130.0" x2="1490" y2="130.0" stroke="rgba(0,0,0,0.08)" stroke-width="1"/><text x="1498" y="137.0" font-size="20" fill="rgba(0,0,0,0.56)">15%</text><text x="48.0" y="576" font-size="20" fill="rgba(0,0,0,0.56)">2010</text><text x="221.9" y="576" font-size="20" fill="rgba(0,0,0,0.56)">2012</text><text x="395.8" y="576" font-size="20" fill="rgba(0,0,0,0.56)">2014</text><text x="569.7" y="576" font-size="20" fill="rgba(0,0,0,0.56)">2016</text><text x="743.6" y="576" font-size="20" fill="rgba(0,0,0,0.56)">2018</text><text x="917.5" y="576" font-size="20" fill="rgba(0,0,0,0.56)">2020</text><text x="1091.5" y="576" font-size="20" fill="rgba(0,0,0,0.56)">2022</text><text x="1265.4" y="576" font-size="20" fill="rgba(0,0,0,0.56)">2024</text><text x="1439.3" y="576" font-size="20" fill="rgba(0,0,0,0.56)">2026</text><polyline points="48.0,286.2 55.2,278.0 62.5,281.0 69.7,292.8 77.0,307.7 84.2,293.4 91.5,298.2 98.7,297.2 106.0,309.8 113.2,295.3 120.5,306.0 127.7,312.1 135.0,286.0 142.2,276.4 149.4,287.6 156.7,297.1 163.9,295.2 171.2,299.3 178.4,301.2 185.7,300.1 192.9,291.1 200.2,292.0 207.4,321.5 214.7,314.8 221.9,299.6 229.2,289.1 236.4,296.3 243.6,304.6 250.9,328.1 258.1,316.8 265.4,292.6 272.6,302.1 279.9,303.2 287.1,291.5 294.4,326.6 301.6,316.6 308.9,306.9 316.1,286.3 323.4,304.3 330.6,312.2 337.8,317.8 345.1,314.4 352.3,300.3 359.6,309.6 366.8,315.8 374.1,321.8 381.3,343.3 388.6,326.5 395.8,315.8 403.1,305.4 410.3,315.1 417.6,336.9 424.8,331.3 432.1,320.4 439.3,316.6 446.5,317.9 453.8,317.8 461.0,340.2 468.3,372.3 475.5,351.0 482.8,334.7 490.0,312.5 497.3,337.0 504.5,345.4 511.8,354.5 519.0,325.6 526.3,337.9 533.5,326.0 540.7,333.8 548.0,350.1 555.2,366.2 562.5,344.2 569.7,329.0 577.0,335.3 584.2,383.0 591.5,354.8 598.7,351.3 606.0,344.6 613.2,328.9 620.5,345.0 627.7,363.9 634.9,353.2 642.2,376.5 649.4,342.7 656.7,327.5 663.9,333.5 671.2,340.4 678.4,373.0 685.7,372.0 692.9,342.0 700.2,326.7 707.4,338.1 714.7,342.3 721.9,347.2 729.1,360.6 736.4,355.0 743.6,320.7 750.9,329.4 758.1,375.4 765.4,328.9 772.6,321.7 779.9,313.9 787.1,305.5 794.4,343.3 801.6,340.3 808.9,331.3 816.1,362.1 823.3,354.7 830.6,333.0 837.8,360.9 845.1,380.2 852.3,354.0 859.6,348.1 866.8,340.2 874.1,338.4 881.3,370.7 888.6,358.3 895.8,362.8 903.1,391.7 910.3,373.0 917.5,355.6 924.8,373.0 932.0,393.1 939.3,399.7 946.5,408.6 953.8,409.8 961.0,400.2 968.3,410.5 975.5,417.0 982.8,413.6 990.0,419.4 997.3,422.2 1004.5,412.5 1011.7,403.5 1019.0,398.9 1026.2,410.6 1033.5,411.4 1040.7,413.7 1048.0,409.9 1055.2,410.4 1062.5,421.9 1069.7,421.5 1077.0,432.2 1084.2,431.4 1091.5,422.8 1098.7,402.3 1105.9,409.4 1113.2,412.4 1120.4,414.1 1127.7,424.7 1134.9,400.4 1142.2,404.0 1149.4,411.1 1156.7,414.6 1163.9,428.2 1171.2,412.0 1178.4,413.0 1185.7,419.7 1192.9,438.9 1200.2,434.8 1207.4,431.0 1214.6,431.2 1221.9,428.2 1229.1,420.1 1236.4,435.4 1243.6,448.7 1250.9,451.3 1258.1,445.9 1265.4,428.7 1272.6,432.5 1279.9,444.8 1287.1,446.3 1294.4,451.9 1301.6,438.3 1308.8,433.3 1316.1,438.5 1323.3,435.8 1330.6,446.8 1337.8,457.4 1345.1,445.0 1352.3,450.3 1359.6,459.8 1366.8,454.6 1374.1,420.9 1381.3,355.0 1388.6,296.5 1395.8,304.0 1403.0,259.8 1410.3,180.1 1417.5,199.0 1424.8,203.7 1432.0,191.5 1439.3,202.1 1446.5,212.4 1453.8,350.7 1461.0,365.1 1468.3,360.2 1475.5,366.7 1482.8,374.0 1490.0,347.8" fill="none" stroke="#000000" stroke-width="1.75" stroke-linejoin="round"/><circle cx="1490.0" cy="347.8" r="3.5" fill="#1f4e79"/><text x="1486.0" y="335.8" font-size="22" font-weight="600" fill="#1f4e79">7.22%</text><text x="48" y="612" font-size="16" fill="rgba(0,0,0,0.56)">ETRX — US Effective Tariff Rate Index · etrxindex.com · Source: US Census Bureau, imports for consumption</text></svg>