<svg xmlns="http://www.w3.org/2000/svg" viewBox="0 0 1600 640" width="1600" height="640" font-family="Inter, Helvetica, Arial, sans-serif"><rect width="1600" height="640" fill="#fff"/><text x="48" y="58" font-size="34" font-weight="600" fill="#000000">India — all chapters</text><text x="48" y="92" font-size="20" fill="rgba(0,0,0,0.64)">ETRX-IN · August 2026 print: 8.45% (+12 bps month over month)</text><line x1="48" y1="550.0" x2="1490" y2="550.0" stroke="rgba(0,0,0,0.08)" stroke-width="1"/><text x="1498" y="557.0" font-size="20" fill="rgba(0,0,0,0.56)">0%</text><line x1="48" y1="340.0" x2="1490" y2="340.0" stroke="rgba(0,0,0,0.08)" stroke-width="1"/><text x="1498" y="347.0" font-size="20" fill="rgba(0,0,0,0.56)">12.5%</text><line x1="48" y1="130.0" x2="1490" y2="130.0" stroke="rgba(0,0,0,0.08)" stroke-width="1"/><text x="1498" y="137.0" font-size="20" fill="rgba(0,0,0,0.56)">25%</text><text x="48.0" y="576" font-size="20" fill="rgba(0,0,0,0.56)">2010</text><text x="221.9" y="576" font-size="20" fill="rgba(0,0,0,0.56)">2012</text><text x="395.8" y="576" font-size="20" fill="rgba(0,0,0,0.56)">2014</text><text x="569.7" y="576" font-size="20" fill="rgba(0,0,0,0.56)">2016</text><text x="743.6" y="576" font-size="20" fill="rgba(0,0,0,0.56)">2018</text><text x="917.5" y="576" font-size="20" fill="rgba(0,0,0,0.56)">2020</text><text x="1091.5" y="576" font-size="20" fill="rgba(0,0,0,0.56)">2022</text><text x="1265.4" y="576" font-size="20" fill="rgba(0,0,0,0.56)">2024</text><text x="1439.3" y="576" font-size="20" fill="rgba(0,0,0,0.56)">2026</text><polyline points="48.0,500.7 55.2,495.6 62.5,501.4 69.7,502.6 77.0,507.2 84.2,504.2 91.5,507.3 98.7,507.8 106.0,505.4 113.2,504.5 120.5,502.7 127.7,504.0 135.0,501.4 142.2,498.3 149.4,503.1 156.7,509.7 163.9,510.5 171.2,511.7 178.4,508.0 185.7,510.5 192.9,508.8 200.2,510.4 207.4,507.4 214.7,512.8 221.9,506.5 229.2,506.1 236.4,510.1 243.6,511.9 250.9,514.1 258.1,516.2 265.4,519.7 272.6,517.5 279.9,514.8 287.1,510.4 294.4,510.2 301.6,511.8 308.9,507.6 316.1,503.3 323.4,510.5 330.6,512.4 337.8,517.9 345.1,514.3 352.3,514.8 359.6,512.0 366.8,509.9 374.1,508.1 381.3,507.4 388.6,509.1 395.8,510.0 403.1,504.0 410.3,508.6 417.6,514.1 424.8,515.1 432.1,509.6 439.3,511.5 446.5,512.0 453.8,514.3 461.0,511.6 468.3,510.5 475.5,511.6 482.8,508.1 490.0,503.0 497.3,504.3 504.5,506.5 511.8,512.7 519.0,508.8 526.3,509.1 533.5,510.3 540.7,509.6 548.0,509.0 555.2,506.0 562.5,505.0 569.7,508.2 577.0,501.9 584.2,506.6 591.5,505.8 598.7,512.7 606.0,508.8 613.2,509.3 620.5,509.7 627.7,513.4 634.9,514.0 642.2,508.6 649.4,509.8 656.7,507.9 663.9,503.6 671.2,505.3 678.4,506.8 685.7,512.2 692.9,510.6 700.2,509.8 707.4,510.6 714.7,513.9 721.9,511.1 729.1,511.8 736.4,514.4 743.6,512.2 750.9,506.5 758.1,510.7 765.4,507.7 772.6,509.7 779.9,508.6 787.1,507.4 794.4,509.7 801.6,508.8 808.9,511.1 816.1,505.9 823.3,510.4 830.6,508.9 837.8,508.1 845.1,508.2 852.3,507.5 859.6,510.6 866.8,501.0 874.1,501.3 881.3,500.5 888.6,501.7 895.8,503.0 903.1,501.9 910.3,503.4 917.5,502.3 924.8,500.4 932.0,501.9 939.3,500.5 946.5,517.6 953.8,518.2 961.0,510.3 968.3,507.8 975.5,507.8 982.8,505.1 990.0,506.6 997.3,509.7 1004.5,507.2 1011.7,504.2 1019.0,504.3 1026.2,504.9 1033.5,502.6 1040.7,504.8 1048.0,505.7 1055.2,504.6 1062.5,501.8 1069.7,501.1 1077.0,502.8 1084.2,504.5 1091.5,502.9 1098.7,498.6 1105.9,496.2 1113.2,496.1 1120.4,500.2 1127.7,504.0 1134.9,499.9 1142.2,501.2 1149.4,497.1 1156.7,503.5 1163.9,501.8 1171.2,500.5 1178.4,508.4 1185.7,505.4 1192.9,504.7 1200.2,508.3 1207.4,509.8 1214.6,505.8 1221.9,506.9 1229.1,508.3 1236.4,508.5 1243.6,510.6 1250.9,512.8 1258.1,511.3 1265.4,515.9 1272.6,509.2 1279.9,507.6 1287.1,509.1 1294.4,512.7 1301.6,510.7 1308.8,508.8 1316.1,507.0 1323.3,503.8 1330.6,507.3 1337.8,505.0 1345.1,509.0 1352.3,511.5 1359.6,514.9 1366.8,510.8 1374.1,485.8 1381.3,452.0 1388.6,408.0 1395.8,413.3 1403.0,359.1 1410.3,234.3 1417.5,165.5 1424.8,209.6 1432.0,207.9 1439.3,194.4 1446.5,289.1 1453.8,407.4 1461.0,423.2 1468.3,406.1 1475.5,394.5 1482.8,410.0 1490.0,408.1" fill="none" stroke="#000000" stroke-width="1.75" stroke-linejoin="round"/><circle cx="1490.0" cy="408.1" r="3.5" fill="#1f4e79"/><text x="1486.0" y="396.1" font-size="22" font-weight="600" fill="#1f4e79">8.45%</text><text x="48" y="612" font-size="16" fill="rgba(0,0,0,0.56)">ETRX — US Effective Tariff Rate Index · etrxindex.com · Source: US Census Bureau, imports for consumption</text></svg>